<svg xmlns="http://www.w3.org/2000/svg" xmlns:xlink="http://www.w3.org/1999/xlink" width="192" zoomAndPan="magnify" viewBox="0 0 144 143.999998" height="300" preserveAspectRatio="xMidYMid meet" version="1.0"><defs><g/></defs><g fill="#2f5597" fill-opacity="1"><g transform="translate(1.754941, 85.108963)"><g><path d="M 19.433594 -0.308594 L 19.433594 -21.019531 L 14.0625 -21.019531 C 11.589844 -21.019531 9.492188 -20.195312 7.765625 -18.546875 C 6.039062 -16.898438 5.175781 -14.847656 5.175781 -12.402344 C 5.175781 -9.957031 6.027344 -7.914062 7.726562 -6.277344 C 9.425781 -4.644531 11.5 -3.824219 13.949219 -3.824219 C 15.417969 -3.824219 16.769531 -4.171875 18.003906 -4.867188 L 18.003906 -0.964844 C 16.382812 -0.425781 14.964844 -0.15625 13.753906 -0.15625 C 10.277344 -0.15625 7.308594 -1.332031 4.847656 -3.691406 C 2.390625 -6.046875 1.160156 -8.949219 1.160156 -12.402344 C 1.160156 -14.359375 1.609375 -16.226562 2.511719 -18.003906 C 3.59375 -20.066406 5.113281 -21.664062 7.070312 -22.796875 C 9.027344 -23.929688 11.191406 -24.496094 13.5625 -24.496094 L 23.183594 -24.496094 L 23.183594 -0.308594 Z M 19.433594 -0.308594 "/></g></g></g><g fill="#2f5597" fill-opacity="1"><g transform="translate(26.598489, 85.108963)"><g><path d="M 10.933594 -21.25 C 8.949219 -21.25 7.308594 -20.5625 6.007812 -19.183594 C 4.707031 -17.804688 4.058594 -16.097656 4.058594 -14.0625 L 4.058594 -0.308594 L 0.078125 -0.308594 L 0.078125 -24.496094 L 4.058594 -24.496094 L 4.058594 -21.984375 C 5.34375 -22.988281 6.464844 -23.683594 7.417969 -24.070312 C 8.578125 -24.585938 9.867188 -24.84375 11.28125 -24.84375 C 14.554688 -24.84375 17.230469 -23.554688 19.320312 -20.980469 L 15.917969 -19.125 C 14.605469 -20.542969 12.945312 -21.25 10.933594 -21.25 Z M 10.933594 -21.25 "/></g></g></g><g fill="#2f5597" fill-opacity="1"><g transform="translate(44.757844, 85.108963)"><g><path d="M 22.71875 -0.308594 L 18.894531 -0.308594 L 18.894531 -14.0625 C 18.894531 -16.074219 18.25 -17.773438 16.960938 -19.164062 C 15.671875 -20.554688 14.023438 -21.25 12.015625 -21.25 C 10.007812 -21.25 8.359375 -20.5625 7.070312 -19.183594 C 5.78125 -17.804688 5.140625 -16.097656 5.140625 -14.0625 L 5.140625 -0.308594 L 1.160156 -0.308594 L 1.160156 -24.496094 L 5.140625 -24.496094 L 5.140625 -21.984375 C 6.425781 -22.988281 7.546875 -23.683594 8.5 -24.070312 C 9.660156 -24.585938 10.945312 -24.84375 12.363281 -24.84375 C 14.167969 -24.84375 15.828125 -24.410156 17.347656 -23.550781 C 18.867188 -22.6875 20.089844 -21.535156 21.019531 -20.089844 C 22.074219 -21.507812 23.421875 -22.652344 25.054688 -23.53125 C 26.691406 -24.40625 28.359375 -24.84375 30.058594 -24.84375 C 32.96875 -24.84375 35.429688 -23.808594 37.4375 -21.734375 C 39.449219 -19.660156 40.453125 -17.167969 40.453125 -14.257812 L 40.453125 -0.308594 L 36.589844 -0.308594 L 36.589844 -14.0625 C 36.589844 -16.074219 35.945312 -17.773438 34.65625 -19.164062 C 33.371094 -20.554688 31.734375 -21.25 29.75 -21.25 C 27.742188 -21.25 26.066406 -20.566406 24.726562 -19.203125 C 23.386719 -17.835938 22.71875 -16.164062 22.71875 -14.179688 Z M 22.71875 -0.308594 "/></g></g></g><g fill="#2f5597" fill-opacity="1"><g transform="translate(86.794828, 85.108963)"><g><path d="M 22.640625 -14.257812 C 21.921875 -18.917969 19.007812 -21.25 13.910156 -21.25 C 11.359375 -21.25 9.164062 -20.386719 7.320312 -18.660156 C 5.480469 -16.9375 4.570312 -14.835938 4.597656 -12.363281 C 4.625 -9.941406 5.492188 -7.882812 7.207031 -6.183594 C 8.917969 -4.480469 10.984375 -3.632812 13.40625 -3.632812 C 15.46875 -3.632812 17.425781 -4.019531 19.28125 -4.789062 C 21.445312 -5.71875 22.820312 -6.96875 23.414062 -8.539062 L 26.003906 -6.027344 C 24.945312 -4.042969 23.257812 -2.523438 20.941406 -1.46875 C 18.828125 -0.464844 16.484375 0.0390625 13.910156 0.0390625 C 10.304688 0.0390625 7.21875 -1.152344 4.65625 -3.535156 C 2.09375 -5.917969 0.8125 -8.859375 0.8125 -12.363281 C 0.8125 -15.839844 2.097656 -18.789062 4.675781 -21.210938 C 7.25 -23.632812 10.328125 -24.84375 13.910156 -24.84375 C 17.773438 -24.816406 20.800781 -23.941406 22.988281 -22.214844 C 25.589844 -20.179688 26.890625 -17.027344 26.890625 -12.75 C 26.890625 -12.234375 26.878906 -11.695312 26.851562 -11.128906 L 8.308594 -11.128906 L 8.308594 -14.21875 L 22.601562 -14.21875 Z M 22.640625 -14.257812 "/></g></g></g><g fill="#2f5597" fill-opacity="1"><g transform="translate(114.652054, 85.108963)"><g><path d="M 1.160156 -30.871094 L 5.140625 -30.871094 L 5.140625 -0.308594 L 1.160156 -0.308594 Z M 1.160156 -30.871094 "/></g></g></g><g fill="#2f5597" fill-opacity="1"><g transform="translate(121.29761, 85.108963)"><g><path d="M 0.695312 -24.457031 L 5.332031 -24.457031 L 10.546875 -16.460938 L 15.765625 -24.457031 L 20.4375 -24.457031 L 12.558594 -12.402344 L 12.558594 -0.308594 L 8.578125 -0.308594 L 8.578125 -12.402344 Z M 0.695312 -24.457031 "/></g></g></g></svg>